<svg version="1.1" id="Layer_1" xmlns="http://www.w3.org/2000/svg" xmlns:xlink="http://www.w3.org/1999/xlink" x="0px" y="0px"
	 width="100%" viewBox="0 0 146 146" enable-background="new 0 0 146 146" xml:space="preserve">
<path fill="#040404" opacity="1.000000" stroke="none" 
	d="
M146.000000,147.000000 
	C98.312439,147.000000 50.624878,147.000000 2.464388,146.531357 
	C1.991148,128.897232 1.973117,111.731720 1.994400,94.566269 
	C2.032623,63.737911 2.094455,32.909584 2.605269,2.055832 
	C27.881676,2.029039 52.699261,2.004623 77.516785,2.033043 
	C100.330994,2.059169 123.145134,2.142177 145.967926,2.656080 
	C145.984375,51.074688 145.992188,99.037346 146.000000,147.000000 
M19.509624,7.029017 
	C15.396066,7.029017 11.282507,7.029017 7.136518,7.029017 
	C7.136518,52.270161 7.136518,96.990013 7.136518,141.776291 
	C52.104538,141.776291 96.823364,141.776291 141.625992,141.776291 
	C141.625992,96.800476 141.625992,52.086777 141.625992,7.029017 
	C101.072548,7.029017 60.790073,7.029017 19.509624,7.029017 
z"/>
<path fill="#FEFEFE" opacity="1.000000" stroke="none" 
	d="
M145.959305,2.200125 
	C123.145134,2.142177 100.330994,2.059169 77.516785,2.033043 
	C52.699261,2.004623 27.881676,2.029039 2.319740,2.020334 
	C1.383576,2.006833 1.191788,2.003417 1.000000,2.000000 
	C2.333333,1.666667 3.666360,1.043341 5.000044,1.041929 
	C52.333324,0.991829 99.666664,1.000000 146.734543,1.522595 
	C146.299149,2.096835 146.129227,2.148480 145.959305,2.200125 
z"/>
<path fill="#D2D2D2" opacity="1.000000" stroke="none" 
	d="
M1.000000,2.468657 
	C1.191788,2.003417 1.383576,2.006833 1.860893,2.045748 
	C2.094455,32.909584 2.032623,63.737911 1.994400,94.566269 
	C1.973117,111.731720 1.991148,128.897232 1.995730,146.531357 
	C1.666665,145.671677 1.043364,144.343658 1.041936,143.014984 
	C0.991747,96.322464 1.000000,49.629887 1.000000,2.468657 
z"/>
<path fill="#2D2D2D" opacity="1.000000" stroke="none" 
	d="
M145.967926,2.656080 
	C146.129227,2.148480 146.299149,2.096835 146.734543,2.022595 
	C147.000000,50.333332 147.000000,98.666664 146.500000,147.000000 
	C145.992188,99.037346 145.984375,51.074688 145.967926,2.656080 
z"/>
<path fill="#F9F9F9" opacity="1.000000" stroke="none" 
	d="
M20.008612,7.029017 
	C60.790073,7.029017 101.072548,7.029017 141.625992,7.029017 
	C141.625992,52.086777 141.625992,96.800476 141.625992,141.776291 
	C96.823364,141.776291 52.104538,141.776291 7.136518,141.776291 
	C7.136518,96.990013 7.136518,52.270161 7.136518,7.029017 
	C11.282507,7.029017 15.396066,7.029017 20.008612,7.029017 
M11.892870,28.501661 
	C11.892870,64.580818 11.892870,100.659973 11.892870,136.754074 
	C53.807243,136.754074 95.188347,136.754074 136.604614,136.754074 
	C136.604614,95.097099 136.604614,53.720154 136.604614,12.310087 
	C94.929321,12.310087 53.542892,12.310087 11.892870,12.310087 
	C11.892870,17.556328 11.892870,22.529692 11.892870,28.501661 
z"/>
<path fill="#060606" opacity="1.000000" stroke="none" 
	d="
M11.892870,28.002357 
	C11.892870,22.529692 11.892870,17.556328 11.892870,12.310087 
	C53.542892,12.310087 94.929321,12.310087 136.604614,12.310087 
	C136.604614,53.720154 136.604614,95.097099 136.604614,136.754074 
	C95.188347,136.754074 53.807243,136.754074 11.892870,136.754074 
	C11.892870,100.659973 11.892870,64.580818 11.892870,28.002357 
M131.879623,102.500038 
	C131.879623,74.095421 131.879623,45.690800 131.879623,17.349953 
	C93.196327,17.349953 55.148472,17.349953 17.203560,17.349953 
	C17.203560,55.699699 17.203560,93.743919 17.203560,131.710663 
	C55.540649,131.710663 93.579506,131.710663 131.879623,131.710663 
	C131.879623,122.101212 131.879623,112.800629 131.879623,102.500038 
z"/>
<path fill="#FEFEFE" opacity="1.000000" stroke="none" 
	d="
M131.879623,103.000046 
	C131.879623,112.800629 131.879623,122.101212 131.879623,131.710663 
	C93.579506,131.710663 55.540649,131.710663 17.203560,131.710663 
	C17.203560,93.743919 17.203560,55.699699 17.203560,17.349953 
	C55.148472,17.349953 93.196327,17.349953 131.879623,17.349953 
	C131.879623,45.690800 131.879623,74.095421 131.879623,103.000046 
z"/>
</svg>