<svg version="1.1" id="Layer_1" xmlns="http://www.w3.org/2000/svg" xmlns:xlink="http://www.w3.org/1999/xlink" x="0px" y="0px"
	 width="100%" viewBox="0 0 129 130" enable-background="new 0 0 129 130" xml:space="preserve">
<path fill="#F9F9F9" opacity="1.000000" stroke="none" 
	d="
M130.000000,32.000000 
	C130.000000,65.333336 130.000000,98.166664 130.000000,131.000000 
	C87.000000,131.000000 44.000000,131.000000 1.000000,131.000000 
	C1.000000,87.666664 1.000000,44.333332 1.000000,1.000000 
	C44.000000,1.000000 87.000000,1.000000 130.000000,1.000000 
	C130.000000,11.166667 130.000000,21.333334 130.000000,32.000000 
M127.999008,119.464294 
	C127.999008,80.740578 127.999008,42.016865 127.999008,3.344090 
	C85.992500,3.344090 44.735569,3.344090 3.363232,3.344090 
	C3.363232,45.050163 3.363232,86.553169 3.363232,127.968658 
	C44.996422,127.968658 86.267212,127.968658 127.999008,127.968658 
	C127.999008,125.354294 127.999008,122.902596 127.999008,119.464294 
z"/>
<path fill="#060606" opacity="1.000000" stroke="none" 
	d="
M127.999008,119.957596 
	C127.999008,122.902596 127.999008,125.354294 127.999008,127.968658 
	C86.267212,127.968658 44.996422,127.968658 3.363232,127.968658 
	C3.363232,86.553169 3.363232,45.050163 3.363232,3.344090 
	C44.735569,3.344090 85.992500,3.344090 127.999008,3.344090 
	C127.999008,42.016865 127.999008,80.740578 127.999008,119.957596 
M13.640792,8.141008 
	C11.867236,8.141008 10.093680,8.141008 8.259629,8.141008 
	C8.259629,46.744957 8.259629,84.806351 8.259629,122.888390 
	C46.571949,122.888390 84.624336,122.888390 122.724480,122.888390 
	C122.724480,84.583153 122.724480,46.530525 122.724480,8.141009 
	C86.503220,8.141009 50.556198,8.141009 13.640792,8.141008 
z"/>
<path fill="#FAFAFA" opacity="1.000000" stroke="none" 
	d="
M14.124985,8.141008 
	C50.556198,8.141009 86.503220,8.141009 122.724480,8.141009 
	C122.724480,46.530525 122.724480,84.583153 122.724480,122.888390 
	C84.624336,122.888390 46.571949,122.888390 8.259629,122.888390 
	C8.259629,84.806351 8.259629,46.744957 8.259629,8.141008 
	C10.093680,8.141008 11.867236,8.141008 14.124985,8.141008 
M35.500000,63.141006 
	C44.582230,63.141006 53.664463,63.141006 62.694290,63.141006 
	C62.694290,46.182903 62.694290,29.800327 62.694290,13.447317 
	C46.006157,13.447317 29.625721,13.447317 13.290843,13.447317 
	C13.290843,30.152754 13.290843,46.549671 13.290843,63.141006 
	C20.553886,63.141006 27.526974,63.141006 35.500000,63.141006 
M68.676208,63.057175 
	C85.064705,63.057175 101.453201,63.057175 117.635864,63.057175 
	C117.635864,46.068604 117.635864,29.687630 117.635864,13.508318 
	C100.892365,13.508318 84.515198,13.508318 68.053116,13.508318 
	C68.053116,30.020136 68.053116,46.164234 68.676208,63.057175 
M28.502611,118.141006 
	C39.915222,118.141006 51.327831,118.141006 62.696541,118.141006 
	C62.696541,101.187546 62.696541,84.804779 62.696541,68.445328 
	C46.010666,68.445328 29.630209,68.445328 13.289011,68.445328 
	C13.289011,85.148605 13.289011,101.545364 13.289011,118.141006 
	C18.219116,118.141006 22.861364,118.141006 28.502611,118.141006 
M67.999756,109.466599 
	C67.999756,112.248878 67.999756,115.031151 67.999756,117.922760 
	C84.851006,117.922760 101.235550,117.922760 117.760010,117.922760 
	C117.760010,101.316383 117.760010,84.929024 117.760010,68.387520 
	C101.138992,68.387520 84.758972,68.387520 67.999756,68.387520 
	C67.999756,81.911530 67.999756,95.191978 67.999756,109.466599 
z"/>
<path fill="#060606" opacity="1.000000" stroke="none" 
	d="
M35.000031,63.141006 
	C27.526974,63.141006 20.553886,63.141006 13.290843,63.141006 
	C13.290843,46.549671 13.290843,30.152754 13.290843,13.447317 
	C29.625721,13.447317 46.006157,13.447317 62.694290,13.447317 
	C62.694290,29.800327 62.694290,46.182903 62.694290,63.141006 
	C53.664463,63.141006 44.582230,63.141006 35.000031,63.141006 
M36.500652,18.151236 
	C30.411291,18.151236 24.321930,18.151236 18.301039,18.151236 
	C18.301039,31.827042 18.301039,44.885231 18.301039,57.842628 
	C31.642578,57.842628 44.689430,57.842628 57.684425,57.842628 
	C57.684425,44.509384 57.684425,31.465916 57.684425,18.151236 
	C50.753891,18.151236 44.127110,18.151236 36.500652,18.151236 
z"/>
<path fill="#060606" opacity="1.000000" stroke="none" 
	d="
M68.364662,62.682755 
	C68.053116,46.164234 68.053116,30.020136 68.053116,13.508318 
	C84.515198,13.508318 100.892365,13.508318 117.635864,13.508318 
	C117.635864,29.687630 117.635864,46.068604 117.635864,63.057175 
	C101.453201,63.057175 85.064705,63.057175 68.364662,62.682755 
M91.500366,58.130131 
	C98.579460,58.130131 105.658554,58.130131 112.685982,58.130131 
	C112.685982,44.512558 112.685982,31.468994 112.685982,18.457008 
	C99.335770,18.457008 86.293625,18.457008 73.299149,18.457008 
	C73.299149,31.822838 73.299149,44.880825 73.299149,58.130131 
	C79.226204,58.130131 84.863586,58.130131 91.500366,58.130131 
z"/>
<path fill="#060606" opacity="1.000000" stroke="none" 
	d="
M28.003113,118.141006 
	C22.861364,118.141006 18.219116,118.141006 13.289011,118.141006 
	C13.289011,101.545364 13.289011,85.148605 13.289011,68.445328 
	C29.630209,68.445328 46.010666,68.445328 62.696541,68.445328 
	C62.696541,84.804779 62.696541,101.187546 62.696541,118.141006 
	C51.327831,118.141006 39.915222,118.141006 28.003113,118.141006 
M57.991768,104.463242 
	C57.991768,94.069977 57.991768,83.676712 57.991768,73.354370 
	C44.318138,73.354370 31.398386,73.354370 18.372807,73.354370 
	C18.372807,86.724236 18.372807,99.888344 18.372807,112.958359 
	C31.670748,112.958359 44.603558,112.958359 57.991768,112.958359 
	C57.991768,110.346230 57.991768,107.897865 57.991768,104.463242 
z"/>
<path fill="#060606" opacity="1.000000" stroke="none" 
	d="
M67.999756,108.969513 
	C67.999756,95.191978 67.999756,81.911530 67.999756,68.387520 
	C84.758972,68.387520 101.138992,68.387520 117.760010,68.387520 
	C117.760010,84.929024 117.760010,101.316383 117.760010,117.922760 
	C101.235550,117.922760 84.851006,117.922760 67.999756,117.922760 
	C67.999756,115.031151 67.999756,112.248878 67.999756,108.969513 
M95.498459,73.151237 
	C88.079468,73.151237 80.660484,73.151237 73.299133,73.151237 
	C73.299133,86.822784 73.299133,99.880768 73.299133,112.844826 
	C86.638672,112.844826 99.685547,112.844826 112.686493,112.844826 
	C112.686493,99.513580 112.686493,86.470009 112.686493,73.151237 
	C107.089523,73.151237 101.793549,73.151237 95.498459,73.151237 
z"/>
<path fill="#FEFEFE" opacity="1.000000" stroke="none" 
	d="
M37.000488,18.151236 
	C44.127110,18.151236 50.753891,18.151236 57.684425,18.151236 
	C57.684425,31.465916 57.684425,44.509384 57.684425,57.842628 
	C44.689430,57.842628 31.642578,57.842628 18.301039,57.842628 
	C18.301039,44.885231 18.301039,31.827042 18.301039,18.151236 
	C24.321930,18.151236 30.411291,18.151236 37.000488,18.151236 
z"/>
<path fill="#FEFEFE" opacity="1.000000" stroke="none" 
	d="
M91.000664,58.130131 
	C84.863586,58.130131 79.226204,58.130131 73.299149,58.130131 
	C73.299149,44.880825 73.299149,31.822838 73.299149,18.457008 
	C86.293625,18.457008 99.335770,18.457008 112.685982,18.457008 
	C112.685982,31.468994 112.685982,44.512558 112.685982,58.130131 
	C105.658554,58.130131 98.579460,58.130131 91.000664,58.130131 
z"/>
<path fill="#FEFEFE" opacity="1.000000" stroke="none" 
	d="
M57.991768,104.956367 
	C57.991768,107.897865 57.991768,110.346230 57.991768,112.958359 
	C44.603558,112.958359 31.670748,112.958359 18.372807,112.958359 
	C18.372807,99.888344 18.372807,86.724236 18.372807,73.354370 
	C31.398386,73.354370 44.318138,73.354370 57.991768,73.354370 
	C57.991768,83.676712 57.991768,94.069977 57.991768,104.956367 
z"/>
<path fill="#FEFEFE" opacity="1.000000" stroke="none" 
	d="
M95.998016,73.151237 
	C101.793549,73.151237 107.089523,73.151237 112.686493,73.151237 
	C112.686493,86.470009 112.686493,99.513580 112.686493,112.844826 
	C99.685547,112.844826 86.638672,112.844826 73.299133,112.844826 
	C73.299133,99.880768 73.299133,86.822784 73.299133,73.151237 
	C80.660484,73.151237 88.079468,73.151237 95.998016,73.151237 
z"/>
</svg>