<svg version="1.1" id="Layer_1" xmlns="http://www.w3.org/2000/svg" xmlns:xlink="http://www.w3.org/1999/xlink" x="0px" y="0px"
	 width="100%" viewBox="0 0 187 131" enable-background="new 0 0 187 131" xml:space="preserve">
<path fill="#F5F5F5" opacity="1.000000" stroke="none" 
	d="
M188.000000,45.000000 
	C188.000000,74.333336 188.000000,103.166664 188.000000,132.000000 
	C125.666664,132.000000 63.333332,132.000000 1.000000,132.000000 
	C1.000000,88.333336 1.000000,44.666668 1.000000,1.000000 
	C63.333332,1.000000 125.666664,1.000000 188.000000,1.000000 
	C188.000000,15.500000 188.000000,30.000000 188.000000,45.000000 
M102.499863,129.295944 
	C129.572784,129.295944 156.645691,129.295944 183.696564,129.295944 
	C183.696564,87.351974 183.696564,45.978111 183.696564,4.595394 
	C123.672737,4.595394 63.966267,4.595394 4.298030,4.595394 
	C4.298030,46.309029 4.298030,87.713890 4.298030,129.295944 
	C36.891872,129.295944 69.195862,129.295944 102.499863,129.295944 
z"/>
<path fill="#0C0C0C" opacity="1.000000" stroke="none" 
	d="
M101.999863,129.295944 
	C69.195862,129.295944 36.891872,129.295944 4.298030,129.295944 
	C4.298030,87.713890 4.298030,46.309029 4.298030,4.595394 
	C63.966267,4.595394 123.672737,4.595394 183.696564,4.595394 
	C183.696564,45.978111 183.696564,87.351974 183.696564,129.295944 
	C156.645691,129.295944 129.572784,129.295944 101.999863,129.295944 
M108.499870,124.287285 
	C131.904953,124.287285 155.310043,124.287285 178.687988,124.287285 
	C178.687988,85.679070 178.687988,47.642834 178.687988,9.603859 
	C121.999130,9.603859 65.630669,9.603859 9.306225,9.603859 
	C9.306225,47.980564 9.306225,86.048607 9.306225,124.287292 
	C42.232449,124.287292 74.866158,124.287292 108.499870,124.287285 
z"/>
<path fill="#F5F5F5" opacity="1.000000" stroke="none" 
	d="
M107.999863,124.287292 
	C74.866158,124.287292 42.232449,124.287292 9.306225,124.287292 
	C9.306225,86.048607 9.306225,47.980564 9.306225,9.603859 
	C65.630669,9.603859 121.999130,9.603859 178.687988,9.603859 
	C178.687988,47.642834 178.687988,85.679070 178.687988,124.287285 
	C155.310043,124.287285 131.904953,124.287285 107.999863,124.287292 
M37.500168,14.292437 
	C29.741611,14.292437 21.983057,14.292437 14.305037,14.292437 
	C14.305037,31.327028 14.305037,47.727345 14.305037,63.995358 
	C30.977863,63.995358 47.355457,63.995358 63.688942,63.995358 
	C63.688942,47.331581 63.688942,30.965277 63.688942,14.292444 
	C55.080906,14.292444 46.790524,14.292444 37.500168,14.292437 
M119.010094,32.500847 
	C119.010094,26.564672 119.010094,20.628498 119.010094,14.557354 
	C102.120590,14.557354 85.745033,14.557354 69.257095,14.557354 
	C69.257095,31.211895 69.257095,47.600567 69.257095,64.062836 
	C85.880203,64.062836 102.256546,64.062836 119.010094,64.062836 
	C119.010094,53.726364 119.010094,43.613476 119.010094,32.500847 
M142.500275,64.290810 
	C152.905228,64.290810 163.310165,64.290810 173.703949,64.290810 
	C173.703949,47.360481 173.703949,30.991724 173.703949,14.596394 
	C157.020096,14.596394 140.644241,14.596394 124.293526,14.596394 
	C124.293526,31.299416 124.293526,47.696892 124.293526,64.290810 
	C130.216339,64.290810 135.858521,64.290810 142.500275,64.290810 
M64.010094,99.499680 
	C64.010094,89.569763 64.010094,79.639839 64.010094,69.550262 
	C47.138844,69.550262 30.763323,69.550262 14.250471,69.550262 
	C14.250471,86.195961 14.250471,102.583076 14.250471,119.072166 
	C30.866730,119.072166 47.242924,119.072166 64.010094,119.072166 
	C64.010094,112.740555 64.010094,106.620049 64.010094,99.499680 
M106.494720,119.290810 
	C110.579430,119.290810 114.664131,119.290810 118.691154,119.290810 
	C118.691154,102.335670 118.691154,85.968864 118.691154,69.606461 
	C101.994270,69.606461 85.618233,69.606461 69.302917,69.606461 
	C69.302917,86.321930 69.302917,102.721741 69.302917,119.290810 
	C81.561066,119.290810 93.528168,119.290810 106.494720,119.290810 
M124.011147,97.499893 
	C124.011147,104.731644 124.011147,111.963402 124.011147,119.132538 
	C141.006210,119.132538 157.269608,119.132538 173.625244,119.132538 
	C173.625244,102.480698 173.625244,85.989944 173.625244,69.503723 
	C156.994659,69.503723 140.749817,69.503723 124.011147,69.503723 
	C124.011147,78.638016 124.011147,87.568993 124.011147,97.499893 
z"/>
<path fill="#0A0A0A" opacity="1.000000" stroke="none" 
	d="
M38.000156,14.292440 
	C46.790524,14.292444 55.080906,14.292444 63.688942,14.292444 
	C63.688942,30.965277 63.688942,47.331581 63.688942,63.995358 
	C47.355457,63.995358 30.977863,63.995358 14.305037,63.995358 
	C14.305037,47.727345 14.305037,31.327028 14.305037,14.292437 
	C21.983057,14.292437 29.741611,14.292437 38.000156,14.292440 
M52.460396,59.268536 
	C54.549786,59.268536 56.639175,59.268536 58.625362,59.268536 
	C58.625362,45.631790 58.625362,32.583057 58.625362,19.553959 
	C45.318710,19.553959 32.383846,19.553959 19.284496,19.553959 
	C19.284496,32.865353 19.284496,45.936642 19.284496,59.268543 
	C30.182907,59.268543 40.824341,59.268543 52.460396,59.268536 
z"/>
<path fill="#0A0A0A" opacity="1.000000" stroke="none" 
	d="
M119.010094,33.000717 
	C119.010094,43.613476 119.010094,53.726364 119.010094,64.062836 
	C102.256546,64.062836 85.880203,64.062836 69.257095,64.062836 
	C69.257095,47.600567 69.257095,31.211895 69.257095,14.557354 
	C85.745033,14.557354 102.120590,14.557354 119.010094,14.557354 
	C119.010094,20.628498 119.010094,26.564672 119.010094,33.000717 
M74.025566,46.492527 
	C74.025566,50.623371 74.025566,54.754215 74.025566,59.041565 
	C87.505447,59.041565 100.563187,59.041565 113.689682,59.041565 
	C113.689682,45.754379 113.689682,32.696400 113.689682,19.664085 
	C100.321564,19.664085 87.262573,19.664085 74.025566,19.664085 
	C74.025566,28.506086 74.025566,36.999950 74.025566,46.492527 
z"/>
<path fill="#0A0A0A" opacity="1.000000" stroke="none" 
	d="
M142.000488,64.290810 
	C135.858521,64.290810 130.216339,64.290810 124.293526,64.290810 
	C124.293526,47.696892 124.293526,31.299416 124.293526,14.596394 
	C140.644241,14.596394 157.020096,14.596394 173.703949,14.596394 
	C173.703949,30.991724 173.703949,47.360481 173.703949,64.290810 
	C163.310165,64.290810 152.905228,64.290810 142.000488,64.290810 
M148.500793,19.314838 
	C142.065262,19.314838 135.629730,19.314838 129.404297,19.314838 
	C129.404297,33.048729 129.404297,46.107567 129.404297,59.052048 
	C142.725449,59.052048 155.667038,59.052048 168.699982,59.052048 
	C168.699982,45.774055 168.699982,32.714516 168.699982,19.314842 
	C162.106979,19.314842 155.803589,19.314842 148.500793,19.314838 
z"/>
<path fill="#0A0A0A" opacity="1.000000" stroke="none" 
	d="
M64.010094,99.999611 
	C64.010094,106.620049 64.010094,112.740555 64.010094,119.072166 
	C47.242924,119.072166 30.866730,119.072166 14.250471,119.072166 
	C14.250471,102.583076 14.250471,86.195961 14.250471,69.550262 
	C30.763323,69.550262 47.138844,69.550262 64.010094,69.550262 
	C64.010094,79.639839 64.010094,89.569763 64.010094,99.999611 
M58.995712,88.507050 
	C58.995712,83.896973 58.995712,79.286896 58.995712,74.630676 
	C45.381416,74.630676 32.314636,74.630676 19.375868,74.630676 
	C19.375868,88.018570 19.375868,101.087959 19.375868,114.075142 
	C32.676113,114.075142 45.625301,114.075142 58.995712,114.075142 
	C58.995712,105.759422 58.995712,97.632240 58.995712,88.507050 
z"/>
<path fill="#0A0A0A" opacity="1.000000" stroke="none" 
	d="
M105.994995,119.290810 
	C93.528168,119.290810 81.561066,119.290810 69.302917,119.290810 
	C69.302917,102.721741 69.302917,86.321930 69.302917,69.606461 
	C85.618233,69.606461 101.994270,69.606461 118.691154,69.606461 
	C118.691154,85.968864 118.691154,102.335670 118.691154,119.290810 
	C114.664131,119.290810 110.579430,119.290810 105.994995,119.290810 
M107.460396,114.268539 
	C109.549782,114.268539 111.639168,114.268539 113.625374,114.268539 
	C113.625374,100.631660 113.625374,87.583160 113.625374,74.553955 
	C100.318726,74.553955 87.383858,74.553955 74.284492,74.553955 
	C74.284492,87.865349 74.284492,100.936646 74.284492,114.268539 
	C85.182907,114.268539 95.824341,114.268539 107.460396,114.268539 
z"/>
<path fill="#0A0A0A" opacity="1.000000" stroke="none" 
	d="
M124.011147,96.999924 
	C124.011147,87.568993 124.011147,78.638016 124.011147,69.503723 
	C140.749817,69.503723 156.994659,69.503723 173.625244,69.503723 
	C173.625244,85.989944 173.625244,102.480698 173.625244,119.132538 
	C157.269608,119.132538 141.006210,119.132538 124.011147,119.132538 
	C124.011147,111.963402 124.011147,104.731644 124.011147,96.999924 
M129.026611,76.840782 
	C129.026611,89.252190 129.026611,101.663597 129.026611,113.989807 
	C142.625168,113.989807 155.662552,113.989807 168.683350,113.989807 
	C168.683350,100.681427 168.683350,87.654266 168.683350,74.324211 
	C155.937500,74.324211 143.501740,74.299500 131.066833,74.391342 
	C130.387558,74.396362 129.715439,75.373543 129.026611,76.840782 
z"/>
<path fill="#FDFDFD" opacity="1.000000" stroke="none" 
	d="
M51.963085,59.268539 
	C40.824341,59.268543 30.182907,59.268543 19.284496,59.268543 
	C19.284496,45.936642 19.284496,32.865353 19.284496,19.553959 
	C32.383846,19.553959 45.318710,19.553959 58.625362,19.553959 
	C58.625362,32.583057 58.625362,45.631790 58.625362,59.268536 
	C56.639175,59.268536 54.549786,59.268536 51.963085,59.268539 
z"/>
<path fill="#FDFDFD" opacity="1.000000" stroke="none" 
	d="
M74.025566,45.993172 
	C74.025566,36.999950 74.025566,28.506086 74.025566,19.664085 
	C87.262573,19.664085 100.321564,19.664085 113.689682,19.664085 
	C113.689682,32.696400 113.689682,45.754379 113.689682,59.041565 
	C100.563187,59.041565 87.505447,59.041565 74.025566,59.041565 
	C74.025566,54.754215 74.025566,50.623371 74.025566,45.993172 
z"/>
<path fill="#FDFDFD" opacity="1.000000" stroke="none" 
	d="
M149.000488,19.314840 
	C155.803589,19.314842 162.106979,19.314842 168.699982,19.314842 
	C168.699982,32.714516 168.699982,45.774055 168.699982,59.052048 
	C155.667038,59.052048 142.725449,59.052048 129.404297,59.052048 
	C129.404297,46.107567 129.404297,33.048729 129.404297,19.314838 
	C135.629730,19.314838 142.065262,19.314838 149.000488,19.314840 
z"/>
<path fill="#FDFDFD" opacity="1.000000" stroke="none" 
	d="
M58.995712,89.006050 
	C58.995712,97.632240 58.995712,105.759422 58.995712,114.075142 
	C45.625301,114.075142 32.676113,114.075142 19.375868,114.075142 
	C19.375868,101.087959 19.375868,88.018570 19.375868,74.630676 
	C32.314636,74.630676 45.381416,74.630676 58.995712,74.630676 
	C58.995712,79.286896 58.995712,83.896973 58.995712,89.006050 
z"/>
<path fill="#FDFDFD" opacity="1.000000" stroke="none" 
	d="
M106.963089,114.268539 
	C95.824341,114.268539 85.182907,114.268539 74.284492,114.268539 
	C74.284492,100.936646 74.284492,87.865349 74.284492,74.553955 
	C87.383858,74.553955 100.318726,74.553955 113.625374,74.553955 
	C113.625374,87.583160 113.625374,100.631660 113.625374,114.268539 
	C111.639168,114.268539 109.549782,114.268539 106.963089,114.268539 
z"/>
<path fill="#FDFDFD" opacity="1.000000" stroke="none" 
	d="
M129.033295,76.369492 
	C129.715439,75.373543 130.387558,74.396362 131.066833,74.391342 
	C143.501740,74.299500 155.937500,74.324211 168.683350,74.324211 
	C168.683350,87.654266 168.683350,100.681427 168.683350,113.989807 
	C155.662552,113.989807 142.625168,113.989807 129.026611,113.989807 
	C129.026611,101.663597 129.026611,89.252190 129.033295,76.369492 
z"/>
</svg>