<svg version="1.1" id="Layer_1" xmlns="http://www.w3.org/2000/svg" xmlns:xlink="http://www.w3.org/1999/xlink" x="0px" y="0px"
	 width="100%" viewBox="0 0 239 129" enable-background="new 0 0 239 129" xml:space="preserve">
<path fill="#F7F7F7" opacity="1.000000" stroke="none" 
	d="
M1.000000,51.000000 
	C1.000000,34.000000 1.000000,17.500000 1.000000,1.000000 
	C80.666664,1.000000 160.333328,1.000000 240.000000,1.000000 
	C240.000000,44.000000 240.000000,87.000000 240.000000,130.000000 
	C160.333328,130.000000 80.666664,130.000000 1.000000,130.000000 
	C1.000000,103.833336 1.000000,77.666664 1.000000,51.000000 
M46.500000,3.018783 
	C32.048763,3.018783 17.597527,3.018783 2.958069,3.018783 
	C2.958069,44.831421 2.958069,86.212196 2.958069,127.797760 
	C81.196915,127.797760 159.236298,127.797760 237.509003,127.797760 
	C237.509003,86.202606 237.509003,44.822807 237.509003,3.018783 
	C174.012314,3.018783 110.756157,3.018783 46.500000,3.018783 
z"/>
<path fill="#070707" opacity="1.000000" stroke="none" 
	d="
M47.000000,3.018783 
	C110.756157,3.018783 174.012314,3.018783 237.509003,3.018783 
	C237.509003,44.822807 237.509003,86.202606 237.509003,127.797760 
	C159.236298,127.797760 81.196915,127.797760 2.958069,127.797760 
	C2.958069,86.212196 2.958069,44.831421 2.958069,3.018783 
	C17.597527,3.018783 32.048763,3.018783 47.000000,3.018783 
M232.758270,11.759489 
	C233.601334,7.287417 230.469559,8.011254 227.872574,8.011335 
	C156.071045,8.013567 84.269508,8.013124 12.467977,8.013124 
	C11.012116,8.013124 9.556256,8.013124 7.971466,8.013124 
	C7.971466,46.525867 7.971466,84.578644 7.971466,122.775703 
	C82.904419,122.775703 157.616180,122.775703 232.758560,122.775703 
	C232.758560,85.926460 232.758560,49.318588 232.758270,11.759489 
z"/>
<path fill="#F7F7F7" opacity="1.000000" stroke="none" 
	d="
M232.758423,12.235105 
	C232.758560,49.318588 232.758560,85.926460 232.758560,122.775703 
	C157.616180,122.775703 82.904419,122.775703 7.971466,122.775703 
	C7.971466,84.578644 7.971466,46.525867 7.971466,8.013124 
	C9.556256,8.013124 11.012116,8.013124 12.467977,8.013124 
	C84.269508,8.013124 156.071045,8.013567 227.872574,8.011335 
	C230.469559,8.011254 233.601334,7.287417 232.758423,12.235105 
M227.757431,41.499928 
	C227.757431,32.080120 227.757431,22.660309 227.757431,13.310515 
	C210.719742,13.310515 194.322159,13.310515 178.046860,13.310515 
	C178.046860,29.987917 178.046860,46.367306 178.046860,62.698425 
	C194.714813,62.698425 211.085510,62.698425 227.757416,62.698425 
	C227.757416,55.755428 227.757416,49.127625 227.757431,41.499928 
M58.292503,68.013954 
	C43.199898,68.013954 28.107296,68.013954 13.006241,68.013954 
	C13.006241,84.920677 13.006241,101.301620 13.006241,117.732956 
	C29.640741,117.732956 46.019077,117.732956 62.754494,117.732956 
	C62.754494,101.842751 62.697865,86.234352 62.804665,70.627068 
	C62.824818,67.682274 61.087299,67.978836 58.292503,68.013954 
M67.751678,81.505310 
	C67.751678,93.577606 67.751678,105.649902 67.751678,117.716110 
	C84.680099,117.716110 101.053070,117.716110 117.453308,117.716110 
	C117.453308,101.037590 117.453308,84.662560 117.453308,68.296562 
	C100.752708,68.296562 84.357826,68.296562 67.751678,68.296562 
	C67.751678,72.554153 67.751678,76.530594 67.751678,81.505310 
M163.448853,118.017929 
	C166.400467,118.017929 169.352081,118.017929 172.515579,118.017929 
	C172.515579,101.191200 172.515579,84.815575 172.515579,68.239532 
	C155.888733,68.239532 139.503952,68.239532 122.953781,68.239532 
	C122.953781,84.843803 122.953781,101.222229 122.953781,118.017929 
	C136.255737,118.017929 149.359985,118.017929 163.448853,118.017929 
M227.757431,85.501892 
	C227.757431,79.740471 227.757431,73.979057 227.757431,68.316010 
	C210.706863,68.316010 194.308136,68.316010 178.054260,68.316010 
	C178.054260,84.999123 178.054260,101.378777 178.054260,117.691170 
	C194.728592,117.691170 211.098129,117.691170 227.757416,117.691170 
	C227.757416,107.078171 227.757416,96.789619 227.757431,85.501892 
M172.757431,39.500053 
	C172.757431,30.745653 172.757431,21.991253 172.757431,13.311556 
	C155.717300,13.311556 139.319519,13.311556 123.048248,13.311556 
	C123.048248,29.990028 123.048248,46.369457 123.048248,62.697090 
	C139.717133,62.697090 156.087372,62.697090 172.757416,62.697090 
	C172.757416,55.086758 172.757416,47.793392 172.757431,39.500053 
M67.751678,41.499809 
	C67.751678,48.580189 67.751678,55.660564 67.751678,62.707909 
	C84.696007,62.707909 101.067696,62.707909 117.446640,62.707909 
	C117.446640,46.021107 117.446640,29.646122 117.446640,13.302662 
	C100.738197,13.302662 84.342201,13.302662 67.751678,13.302662 
	C67.751678,22.560242 67.751678,31.530052 67.751678,41.499809 
M62.083534,13.205078 
	C45.679482,13.205078 29.275431,13.205078 13.082340,13.205078 
	C13.082340,30.039034 13.082340,46.420952 13.082340,62.658138 
	C29.785206,62.658138 46.155136,62.658138 62.674400,62.658138 
	C62.674400,46.177925 62.674400,30.056778 62.083534,13.205078 
z"/>
<path fill="#090909" opacity="1.000000" stroke="none" 
	d="
M227.757416,41.999870 
	C227.757416,49.127625 227.757416,55.755428 227.757416,62.698425 
	C211.085510,62.698425 194.714813,62.698425 178.046860,62.698425 
	C178.046860,46.367306 178.046860,29.987917 178.046860,13.310515 
	C194.322159,13.310515 210.719742,13.310515 227.757431,13.310515 
	C227.757431,22.660309 227.757431,32.080120 227.757416,41.999870 
M182.774643,39.499660 
	C182.774643,45.575035 182.774643,51.650410 182.774643,57.693497 
	C196.367798,57.693497 209.394562,57.693497 222.428055,57.693497 
	C222.428055,44.350666 222.428055,31.318632 222.428055,18.317848 
	C209.068970,18.317848 196.018311,18.317848 182.774643,18.317848 
	C182.774643,25.236084 182.774643,31.867916 182.774643,39.499660 
z"/>
<path fill="#090909" opacity="1.000000" stroke="none" 
	d="
M58.767536,68.013992 
	C61.087299,67.978836 62.824818,67.682274 62.804665,70.627068 
	C62.697865,86.234352 62.754494,101.842751 62.754494,117.732956 
	C46.019077,117.732956 29.640741,117.732956 13.006241,117.732956 
	C13.006241,101.301620 13.006241,84.920677 13.006241,68.013954 
	C28.107296,68.013954 43.199898,68.013954 58.767536,68.013992 
M45.482132,73.029877 
	C36.382763,73.029877 27.283396,73.029877 17.981518,73.029877 
	C17.981518,86.476959 17.981518,99.511154 17.981518,112.604340 
	C31.274345,112.604340 44.421185,112.604340 57.512798,112.604340 
	C57.512798,99.301483 57.512798,86.397469 57.512798,73.029877 
	C53.694950,73.029877 50.083775,73.029877 45.482132,73.029877 
z"/>
<path fill="#090909" opacity="1.000000" stroke="none" 
	d="
M67.751678,81.006165 
	C67.751678,76.530594 67.751678,72.554153 67.751678,68.296562 
	C84.357826,68.296562 100.752708,68.296562 117.453308,68.296562 
	C117.453308,84.662560 117.453308,101.037590 117.453308,117.716110 
	C101.053070,117.716110 84.680099,117.716110 67.751678,117.716110 
	C67.751678,105.649902 67.751678,93.577606 67.751678,81.006165 
M112.733749,110.185471 
	C112.733749,97.934067 112.733749,85.682671 112.733749,73.265213 
	C99.198563,73.265213 86.155090,73.265213 72.991791,73.265213 
	C72.991791,86.538353 72.991791,99.575317 72.991791,112.996292 
	C85.633263,112.996292 98.061806,113.028732 110.489044,112.916313 
	C111.240532,112.909508 111.981583,111.750008 112.733749,110.185471 
z"/>
<path fill="#090909" opacity="1.000000" stroke="none" 
	d="
M162.956543,118.017929 
	C149.359985,118.017929 136.255737,118.017929 122.953781,118.017929 
	C122.953781,101.222229 122.953781,84.843803 122.953781,68.239532 
	C139.503952,68.239532 155.888733,68.239532 172.515579,68.239532 
	C172.515579,84.815575 172.515579,101.191200 172.515579,118.017929 
	C169.352081,118.017929 166.400467,118.017929 162.956543,118.017929 
M127.894043,73.662430 
	C127.894043,86.701149 127.894043,99.739868 127.894043,112.653229 
	C141.442261,112.653229 154.466019,112.653229 167.389984,112.653229 
	C167.389984,99.270676 167.389984,86.239456 167.389984,73.080811 
	C154.256851,73.080811 141.467590,73.080811 127.894043,73.662430 
z"/>
<path fill="#090909" opacity="1.000000" stroke="none" 
	d="
M227.757416,86.001480 
	C227.757416,96.789619 227.757416,107.078171 227.757416,117.691170 
	C211.098129,117.691170 194.728592,117.691170 178.054260,117.691170 
	C178.054260,101.378777 178.054260,84.999123 178.054260,68.316010 
	C194.308136,68.316010 210.706863,68.316010 227.757431,68.316010 
	C227.757431,73.979057 227.757431,79.740471 227.757416,86.001480 
M222.725479,74.885956 
	C221.474731,74.267281 220.233353,73.135612 218.971741,73.112595 
	C210.332108,72.955002 201.688217,73.029884 193.045700,73.029869 
	C189.652298,73.029869 186.258896,73.029877 182.951691,73.029877 
	C182.951691,86.711586 182.951691,99.631844 182.951691,112.775948 
	C196.171753,112.775948 209.215073,112.775948 222.732971,112.775948 
	C222.732971,100.331833 222.732971,88.079102 222.725479,74.885956 
z"/>
<path fill="#090909" opacity="1.000000" stroke="none" 
	d="
M172.757416,40.000042 
	C172.757416,47.793392 172.757416,55.086758 172.757416,62.697090 
	C156.087372,62.697090 139.717133,62.697090 123.048248,62.697090 
	C123.048248,46.369457 123.048248,29.990028 123.048248,13.311556 
	C139.319519,13.311556 155.717300,13.311556 172.757431,13.311556 
	C172.757431,21.991253 172.757431,30.745653 172.757416,40.000042 
M162.335098,58.002014 
	C164.072006,58.002014 165.808899,58.002014 167.524597,58.002014 
	C167.524597,44.333942 167.524597,31.428431 167.524597,18.401497 
	C154.168716,18.401497 141.025238,18.401497 127.942474,18.401497 
	C127.942474,31.695042 127.942474,44.616364 127.942474,58.002014 
	C139.193283,58.002014 150.282700,58.002014 162.335098,58.002014 
z"/>
<path fill="#090909" opacity="1.000000" stroke="none" 
	d="
M67.751678,40.999836 
	C67.751678,31.530052 67.751678,22.560242 67.751678,13.302662 
	C84.342201,13.302662 100.738197,13.302662 117.446640,13.302662 
	C117.446640,29.646122 117.446640,46.021107 117.446640,62.707909 
	C101.067696,62.707909 84.696007,62.707909 67.751678,62.707909 
	C67.751678,55.660564 67.751678,48.580189 67.751678,40.999836 
M72.788963,19.647474 
	C72.788963,32.356922 72.788963,45.066368 72.788963,57.656281 
	C86.436737,57.656281 99.460678,57.656281 112.394234,57.656281 
	C112.394234,44.275417 112.394234,31.242785 112.394234,18.029881 
	C104.582764,18.029881 97.109383,17.948957 89.638718,18.056484 
	C84.054710,18.136856 78.474197,18.460358 72.788963,19.647474 
z"/>
<path fill="#090909" opacity="1.000000" stroke="none" 
	d="
M62.378967,13.570354 
	C62.674400,30.056778 62.674400,46.177925 62.674400,62.658138 
	C46.155136,62.658138 29.785206,62.658138 13.082340,62.658138 
	C13.082340,46.420952 13.082340,30.039034 13.082340,13.205078 
	C29.275431,13.205078 45.679482,13.205078 62.378967,13.570354 
M33.502853,18.029881 
	C28.390223,18.029881 23.277590,18.029881 17.975239,18.029881 
	C17.975239,31.486258 17.975239,44.520054 17.975239,57.778122 
	C31.173946,57.778122 44.213802,57.778122 57.494186,57.778122 
	C57.494186,44.552979 57.494186,31.521244 57.494186,18.029881 
	C49.694500,18.029881 42.098000,18.029881 33.502853,18.029881 
z"/>
<path fill="#FDFDFD" opacity="1.000000" stroke="none" 
	d="
M182.774643,38.999702 
	C182.774643,31.867916 182.774643,25.236084 182.774643,18.317848 
	C196.018311,18.317848 209.068970,18.317848 222.428055,18.317848 
	C222.428055,31.318632 222.428055,44.350666 222.428055,57.693497 
	C209.394562,57.693497 196.367798,57.693497 182.774643,57.693497 
	C182.774643,51.650410 182.774643,45.575035 182.774643,38.999702 
z"/>
<path fill="#FDFDFD" opacity="1.000000" stroke="none" 
	d="
M45.977364,73.029877 
	C50.083775,73.029877 53.694950,73.029877 57.512798,73.029877 
	C57.512798,86.397469 57.512798,99.301483 57.512798,112.604340 
	C44.421185,112.604340 31.274345,112.604340 17.981518,112.604340 
	C17.981518,99.511154 17.981518,86.476959 17.981518,73.029877 
	C27.283396,73.029877 36.382763,73.029877 45.977364,73.029877 
z"/>
<path fill="#FDFDFD" opacity="1.000000" stroke="none" 
	d="
M112.730621,110.656166 
	C111.981583,111.750008 111.240532,112.909508 110.489044,112.916313 
	C98.061806,113.028732 85.633263,112.996292 72.991791,112.996292 
	C72.991791,99.575317 72.991791,86.538353 72.991791,73.265213 
	C86.155090,73.265213 99.198563,73.265213 112.733749,73.265213 
	C112.733749,85.682671 112.733749,97.934067 112.730621,110.656166 
z"/>
<path fill="#FDFDFD" opacity="1.000000" stroke="none" 
	d="
M128.286194,73.371620 
	C141.467590,73.080811 154.256851,73.080811 167.389984,73.080811 
	C167.389984,86.239456 167.389984,99.270676 167.389984,112.653229 
	C154.466019,112.653229 141.442261,112.653229 127.894043,112.653229 
	C127.894043,99.739868 127.894043,86.701149 128.286194,73.371620 
z"/>
<path fill="#FDFDFD" opacity="1.000000" stroke="none" 
	d="
M222.729218,75.356155 
	C222.732971,88.079102 222.732971,100.331833 222.732971,112.775948 
	C209.215073,112.775948 196.171753,112.775948 182.951691,112.775948 
	C182.951691,99.631844 182.951691,86.711586 182.951691,73.029877 
	C186.258896,73.029877 189.652298,73.029869 193.045700,73.029869 
	C201.688217,73.029884 210.332108,72.955002 218.971741,73.112595 
	C220.233353,73.135612 221.474731,74.267281 222.729218,75.356155 
z"/>
<path fill="#FDFDFD" opacity="1.000000" stroke="none" 
	d="
M161.853607,58.002014 
	C150.282700,58.002014 139.193283,58.002014 127.942474,58.002014 
	C127.942474,44.616364 127.942474,31.695042 127.942474,18.401497 
	C141.025238,18.401497 154.168716,18.401497 167.524597,18.401497 
	C167.524597,31.428431 167.524597,44.333942 167.524597,58.002014 
	C165.808899,58.002014 164.072006,58.002014 161.853607,58.002014 
z"/>
<path fill="#FDFDFD" opacity="1.000000" stroke="none" 
	d="
M72.840546,19.161535 
	C78.474197,18.460358 84.054710,18.136856 89.638718,18.056484 
	C97.109383,17.948957 104.582764,18.029881 112.394234,18.029881 
	C112.394234,31.242785 112.394234,44.275417 112.394234,57.656281 
	C99.460678,57.656281 86.436737,57.656281 72.788963,57.656281 
	C72.788963,45.066368 72.788963,32.356922 72.840546,19.161535 
z"/>
<path fill="#FDFDFD" opacity="1.000000" stroke="none" 
	d="
M34.002174,18.029881 
	C42.098000,18.029881 49.694500,18.029881 57.494186,18.029881 
	C57.494186,31.521244 57.494186,44.552979 57.494186,57.778122 
	C44.213802,57.778122 31.173946,57.778122 17.975239,57.778122 
	C17.975239,44.520054 17.975239,31.486258 17.975239,18.029881 
	C23.277590,18.029881 28.390223,18.029881 34.002174,18.029881 
z"/>
</svg>