<svg version="1.1" id="Layer_1" xmlns="http://www.w3.org/2000/svg" xmlns:xlink="http://www.w3.org/1999/xlink" x="0px" y="0px"
	 width="100%" viewBox="0 0 292 127" enable-background="new 0 0 292 127" xml:space="preserve">
<path fill="#000000" opacity="1.000000" stroke="none" 
	d="
M1.000000,69.000000 
	C1.000000,58.645771 1.000000,48.291546 1.408796,37.301434 
	C1.817592,25.226334 1.817592,13.787115 1.817592,2.361612 
	C98.937042,2.361612 195.433838,2.361612 291.650940,2.361612 
	C291.650940,44.118439 291.650940,85.513298 291.650940,126.700378 
	C194.910522,126.700378 98.519371,126.700378 2.515370,126.700378 
	C1.974354,123.237160 1.487177,120.118576 1.000000,117.000000 
	C1.000000,106.645775 1.000000,96.291542 1.407932,85.302620 
	C1.543909,79.445282 1.271955,74.222641 1.000000,69.000000 
M7.057713,7.731877 
	C7.057713,45.685699 7.057713,83.639526 7.057713,121.796097 
	C100.456253,121.796097 193.526825,121.796097 286.798706,121.796097 
	C286.798706,83.537811 286.798706,45.466537 286.798706,7.001815 
	C285.982666,7.001815 285.362183,7.001709 284.741669,7.001831 
	C192.410492,7.019962 100.079323,7.038111 7.057713,7.731877 
z"/>
<path fill="#FFFFFF" opacity="1.000000" stroke="none" 
	d="
M1.000000,117.482956 
	C1.487177,120.118576 1.974354,123.237160 2.515370,126.700378 
	C98.519371,126.700378 194.910522,126.700378 291.650940,126.700378 
	C291.650940,85.513298 291.650940,44.118439 291.650940,2.361612 
	C195.433838,2.361612 98.937042,2.361612 1.817592,2.361612 
	C1.817592,13.787115 1.817592,25.226334 1.408796,36.832775 
	C1.000000,25.007381 1.000000,13.014763 0.999999,1.016608 
	C98.266083,1.011072 195.532166,1.011072 292.899109,1.011072 
	C292.899109,43.239826 292.899109,85.479973 292.899109,127.860062 
	C195.666824,127.860062 98.333435,127.860062 1.000000,127.860062 
	C1.000000,124.628502 1.000000,121.297211 1.000000,117.482956 
z"/>
<path fill="#FFFFFF" opacity="1.000000" stroke="none" 
	d="
M1.000000,69.466858 
	C1.271955,74.222641 1.543909,79.445282 1.407932,84.833961 
	C1.000000,79.977905 1.000000,74.955818 1.000000,69.466858 
z"/>
<path fill="#FFFFFF" opacity="1.000000" stroke="none" 
	d="
M7.402932,7.394068 
	C100.079323,7.038111 192.410492,7.019962 284.741669,7.001831 
	C285.362183,7.001709 285.982666,7.001815 286.798706,7.001815 
	C286.798706,45.466537 286.798706,83.537811 286.798706,121.796097 
	C193.526825,121.796097 100.456253,121.796097 7.057713,121.796097 
	C7.057713,83.639526 7.057713,45.685699 7.402932,7.394068 
M278.348175,61.999981 
	C279.953979,61.815132 282.069763,62.869251 282.047607,59.639828 
	C281.939240,43.865005 281.998566,28.089031 281.998566,12.240253 
	C265.119568,12.240253 248.715500,12.240253 232.242828,12.240253 
	C232.242828,28.885683 232.242828,45.289768 232.242828,62.000000 
	C247.448380,62.000000 262.412842,62.000000 278.348175,61.999981 
M53.455940,67.000000 
	C39.697483,67.000000 25.939022,67.000000 12.303497,67.000000 
	C12.303497,84.010025 12.303497,100.414322 12.303497,116.695068 
	C29.012920,116.695068 45.417267,116.695068 61.693474,116.695068 
	C61.693474,99.984337 61.693474,83.580132 61.693474,67.000000 
	C59.073418,67.000000 56.756481,67.000000 53.455940,67.000000 
M86.500420,117.000000 
	C96.596939,117.000000 106.693451,117.000000 116.713608,117.000000 
	C116.713608,100.022682 116.713608,83.619637 116.713608,67.286392 
	C100.022690,67.286392 83.619644,67.286392 67.286385,67.286392 
	C67.286385,83.977356 67.286385,100.380356 67.286385,117.000000 
	C73.547646,117.000000 79.524132,117.000000 86.500420,117.000000 
M122.000000,74.560455 
	C122.000000,88.650650 122.000000,102.740845 122.000000,116.690765 
	C139.021606,116.690765 155.426041,116.690765 171.689331,116.690765 
	C171.689331,99.975487 171.689331,83.571030 171.689331,67.312393 
	C154.972931,67.312393 138.568771,67.312393 122.000000,67.312393 
	C122.000000,69.608109 122.000000,71.592430 122.000000,74.560455 
M208.499451,117.000000 
	C214.596710,117.000000 220.693985,117.000000 226.712891,117.000000 
	C226.712891,100.021217 226.712891,83.618164 226.712891,67.287102 
	C210.021240,67.287102 193.618179,67.287102 177.287094,67.287102 
	C177.287094,83.978729 177.287094,100.381783 177.287094,117.000000 
	C187.548355,117.000000 197.523972,117.000000 208.499451,117.000000 
M232.000000,80.507904 
	C232.000000,92.602951 232.000000,104.697998 232.000000,116.711044 
	C248.982208,116.711044 265.385437,116.711044 281.710815,116.711044 
	C281.710815,100.017349 281.710815,83.614082 281.710815,67.289459 
	C265.016846,67.289459 248.613571,67.289459 232.000000,67.289459 
	C232.000000,71.555084 232.000000,75.533035 232.000000,80.507904 
M207.499573,12.000000 
	C197.403046,12.000000 187.306534,12.000000 177.286407,12.000000 
	C177.286407,28.977343 177.286407,45.380379 177.286407,61.713600 
	C193.977325,61.713600 210.380371,61.713600 226.713593,61.713600 
	C226.713593,45.022682 226.713593,28.619646 226.713593,12.000000 
	C220.452332,12.000000 214.475845,12.000000 207.499573,12.000000 
M152.499573,62.000000 
	C158.930756,62.000000 165.361938,62.000000 171.712921,62.000000 
	C171.712921,45.021297 171.712921,28.618244 171.712921,12.287079 
	C155.021301,12.287079 138.618240,12.287079 122.287079,12.287079 
	C122.287079,28.978693 122.287079,45.381752 122.287079,62.000000 
	C132.215042,62.000000 141.857422,62.000000 152.499573,62.000000 
M117.000000,20.541775 
	C117.000000,17.769011 117.000000,14.996248 117.000000,12.274277 
	C100.048096,12.274277 83.644836,12.274277 67.274971,12.274277 
	C67.274971,28.953300 67.274971,45.356575 67.274971,61.724335 
	C83.954704,61.724335 100.357994,61.724335 117.000000,61.724335 
	C117.000000,48.144436 117.000000,34.839039 117.000000,20.541775 
M61.996109,13.713979 
	C61.398228,13.143838 60.803162,12.079144 60.202053,12.075722 
	C44.254349,11.984913 28.306021,12.003554 12.219003,12.003554 
	C12.219003,28.836773 12.219003,45.240971 12.219003,61.778008 
	C28.842852,61.778008 45.247063,61.778008 61.999725,61.778008 
	C61.999725,45.932419 61.999725,30.306601 61.996109,13.713979 
z"/>
<path fill="#000000" opacity="1.000000" stroke="none" 
	d="
M277.862732,61.999992 
	C262.412842,62.000000 247.448380,62.000000 232.242828,62.000000 
	C232.242828,45.289768 232.242828,28.885683 232.242828,12.240253 
	C248.715500,12.240253 265.119568,12.240253 281.998566,12.240253 
	C281.998566,28.089031 281.939240,43.865005 282.047607,59.639828 
	C282.069763,62.869251 279.953979,61.815132 277.862732,61.999992 
M237.000000,44.489899 
	C237.000000,48.592503 237.000000,52.695107 237.000000,56.715767 
	C250.640045,56.715767 263.709961,56.715767 276.715607,56.715767 
	C276.715607,43.359623 276.715607,30.289682 276.715607,17.284565 
	C263.359314,17.284565 250.289352,17.284565 237.000000,17.284565 
	C237.000000,26.208923 237.000000,34.850510 237.000000,44.489899 
z"/>
<path fill="#000000" opacity="1.000000" stroke="none" 
	d="
M53.947742,67.000000 
	C56.756481,67.000000 59.073418,67.000000 61.693474,67.000000 
	C61.693474,83.580132 61.693474,99.984337 61.693474,116.695068 
	C45.417267,116.695068 29.012920,116.695068 12.303497,116.695068 
	C12.303497,100.414322 12.303497,84.010025 12.303497,67.000000 
	C25.939022,67.000000 39.697483,67.000000 53.947742,67.000000 
M35.500420,72.000000 
	C29.403482,72.000000 23.306545,72.000000 17.286732,72.000000 
	C17.286732,85.645348 17.286732,98.715225 17.286732,111.713272 
	C30.645330,111.713272 43.715214,111.713272 56.713284,111.713272 
	C56.713284,98.354721 56.713284,85.284813 56.713284,72.000000 
	C49.785469,72.000000 43.142849,72.000000 35.500420,72.000000 
z"/>
<path fill="#000000" opacity="1.000000" stroke="none" 
	d="
M86.000519,117.000000 
	C79.524132,117.000000 73.547646,117.000000 67.286385,117.000000 
	C67.286385,100.380356 67.286385,83.977356 67.286385,67.286392 
	C83.619644,67.286392 100.022690,67.286392 116.713608,67.286392 
	C116.713608,83.619637 116.713608,100.022682 116.713608,117.000000 
	C106.693451,117.000000 96.596939,117.000000 86.000519,117.000000 
M106.400208,112.000000 
	C108.174179,112.000000 109.948151,112.000000 111.744644,112.000000 
	C111.744644,98.421013 111.744644,85.350433 111.744644,72.257385 
	C98.417023,72.257385 85.346344,72.257385 72.259415,72.257385 
	C72.259415,85.587143 72.259415,98.657799 72.259415,112.000000 
	C83.485565,112.000000 94.454414,112.000000 106.400208,112.000000 
z"/>
<path fill="#000000" opacity="1.000000" stroke="none" 
	d="
M122.000000,74.068604 
	C122.000000,71.592430 122.000000,69.608109 122.000000,67.312393 
	C138.568771,67.312393 154.972931,67.312393 171.689331,67.312393 
	C171.689331,83.571030 171.689331,99.975487 171.689331,116.690765 
	C155.426041,116.690765 139.021606,116.690765 122.000000,116.690765 
	C122.000000,102.740845 122.000000,88.650650 122.000000,74.068604 
M145.500412,72.000000 
	C139.403473,72.000000 133.306534,72.000000 127.286743,72.000000 
	C127.286743,85.645332 127.286743,98.715233 127.286743,111.713264 
	C140.645309,111.713264 153.715210,111.713264 166.713272,111.713264 
	C166.713272,98.354706 166.713272,85.284805 166.713272,72.000000 
	C159.785446,72.000000 153.142838,72.000000 145.500412,72.000000 
z"/>
<path fill="#000000" opacity="1.000000" stroke="none" 
	d="
M207.999512,117.000000 
	C197.523972,117.000000 187.548355,117.000000 177.287094,117.000000 
	C177.287094,100.381783 177.287094,83.978729 177.287094,67.287102 
	C193.618179,67.287102 210.021240,67.287102 226.712891,67.287102 
	C226.712891,83.618164 226.712891,100.021217 226.712891,117.000000 
	C220.693985,117.000000 214.596710,117.000000 207.999512,117.000000 
M182.000000,95.498413 
	C182.000000,100.929329 182.000000,106.360245 182.000000,111.713417 
	C195.644989,111.713417 208.714890,111.713417 221.713409,111.713417 
	C221.713409,98.354965 221.713409,85.285080 221.713409,72.286591 
	C208.354980,72.286591 195.285080,72.286591 182.000000,72.286591 
	C182.000000,79.880394 182.000000,87.189598 182.000000,95.498413 
z"/>
<path fill="#000000" opacity="1.000000" stroke="none" 
	d="
M232.000000,80.009445 
	C232.000000,75.533035 232.000000,71.555084 232.000000,67.289459 
	C248.613571,67.289459 265.016846,67.289459 281.710815,67.289459 
	C281.710815,83.614082 281.710815,100.017349 281.710815,116.711044 
	C265.385437,116.711044 248.982208,116.711044 232.000000,116.711044 
	C232.000000,104.697998 232.000000,92.602951 232.000000,80.009445 
M237.000000,83.517097 
	C237.000000,92.945656 237.000000,102.374222 237.000000,111.707291 
	C250.656784,111.707291 263.727142,111.707291 276.706787,111.707291 
	C276.706787,98.342255 276.706787,85.271843 276.706787,72.293724 
	C263.341187,72.293724 250.270813,72.293724 237.000000,72.293724 
	C237.000000,75.897034 237.000000,79.210052 237.000000,83.517097 
z"/>
<path fill="#000000" opacity="1.000000" stroke="none" 
	d="
M207.999466,12.000000 
	C214.475845,12.000000 220.452332,12.000000 226.713593,12.000000 
	C226.713593,28.619646 226.713593,45.022682 226.713593,61.713600 
	C210.380371,61.713600 193.977325,61.713600 177.286407,61.713600 
	C177.286407,45.380379 177.286407,28.977343 177.286407,12.000000 
	C187.306534,12.000000 197.403046,12.000000 207.999466,12.000000 
M182.000000,30.507904 
	C182.000000,39.270596 182.000000,48.033287 182.000000,56.710777 
	C195.650009,56.710777 208.720139,56.710777 221.710541,56.710777 
	C221.710541,43.349449 221.710541,30.279335 221.710541,17.289715 
	C208.348953,17.289715 195.278824,17.289715 182.000000,17.289715 
	C182.000000,21.555433 182.000000,25.533213 182.000000,30.507904 
z"/>
<path fill="#000000" opacity="1.000000" stroke="none" 
	d="
M151.999695,62.000000 
	C141.857422,62.000000 132.215042,62.000000 122.287079,62.000000 
	C122.287079,45.381752 122.287079,28.978693 122.287079,12.287079 
	C138.618240,12.287079 155.021301,12.287079 171.712921,12.287079 
	C171.712921,28.618244 171.712921,45.021297 171.712921,62.000000 
	C165.361938,62.000000 158.930756,62.000000 151.999695,62.000000 
M127.000282,54.322281 
	C127.778076,55.214340 128.545807,56.873398 129.335175,56.883762 
	C141.777893,57.047119 154.223404,56.998459 166.769501,56.998459 
	C166.769501,43.472084 166.769501,30.401594 166.769501,17.232817 
	C153.467377,17.232817 140.396835,17.232817 127.000008,17.232817 
	C127.000008,29.424532 127.000008,41.386391 127.000282,54.322281 
z"/>
<path fill="#000000" opacity="1.000000" stroke="none" 
	d="
M117.000000,21.037708 
	C117.000000,34.839039 117.000000,48.144436 117.000000,61.724335 
	C100.357994,61.724335 83.954704,61.724335 67.274971,61.724335 
	C67.274971,45.356575 67.274971,28.953300 67.274971,12.274277 
	C83.644836,12.274277 100.048096,12.274277 117.000000,12.274277 
	C117.000000,14.996248 117.000000,17.769011 117.000000,21.037708 
M79.560455,57.000000 
	C90.318298,57.000000 101.076141,57.000000 111.690659,57.000000 
	C111.690659,43.310837 111.690659,30.239347 111.690659,17.310764 
	C98.307861,17.310764 85.236389,17.310764 72.312485,17.310764 
	C72.312485,30.694620 72.312485,43.765846 72.312485,57.000000 
	C74.608238,57.000000 76.592491,57.000000 79.560455,57.000000 
z"/>
<path fill="#000000" opacity="1.000000" stroke="none" 
	d="
M61.997917,14.197381 
	C61.999725,30.306601 61.999725,45.932419 61.999725,61.778008 
	C45.247063,61.778008 28.842852,61.778008 12.219003,61.778008 
	C12.219003,45.240971 12.219003,28.836773 12.219003,12.003554 
	C28.306021,12.003554 44.254349,11.984913 60.202053,12.075722 
	C60.803162,12.079144 61.398228,13.143838 61.997917,14.197381 
M57.000000,29.510109 
	C57.000000,25.407509 57.000000,21.304909 57.000000,17.284225 
	C43.360008,17.284225 30.290052,17.284225 17.284393,17.284225 
	C17.284393,30.640329 17.284393,43.710293 17.284393,56.715439 
	C30.640673,56.715439 43.710636,56.715439 57.000000,56.715439 
	C57.000000,47.791088 57.000000,39.149494 57.000000,29.510109 
z"/>
<path fill="#FFFFFF" opacity="1.000000" stroke="none" 
	d="
M237.000000,43.990997 
	C237.000000,34.850510 237.000000,26.208923 237.000000,17.284565 
	C250.289352,17.284565 263.359314,17.284565 276.715607,17.284565 
	C276.715607,30.289682 276.715607,43.359623 276.715607,56.715767 
	C263.709961,56.715767 250.640045,56.715767 237.000000,56.715767 
	C237.000000,52.695107 237.000000,48.592503 237.000000,43.990997 
z"/>
<path fill="#FFFFFF" opacity="1.000000" stroke="none" 
	d="
M36.000324,72.000000 
	C43.142849,72.000000 49.785469,72.000000 56.713284,72.000000 
	C56.713284,85.284813 56.713284,98.354721 56.713284,111.713272 
	C43.715214,111.713272 30.645330,111.713272 17.286732,111.713272 
	C17.286732,98.715225 17.286732,85.645348 17.286732,72.000000 
	C23.306545,72.000000 29.403482,72.000000 36.000324,72.000000 
z"/>
<path fill="#FFFFFF" opacity="1.000000" stroke="none" 
	d="
M105.911736,112.000000 
	C94.454414,112.000000 83.485565,112.000000 72.259415,112.000000 
	C72.259415,98.657799 72.259415,85.587143 72.259415,72.257385 
	C85.346344,72.257385 98.417023,72.257385 111.744644,72.257385 
	C111.744644,85.350433 111.744644,98.421013 111.744644,112.000000 
	C109.948151,112.000000 108.174179,112.000000 105.911736,112.000000 
z"/>
<path fill="#FFFFFF" opacity="1.000000" stroke="none" 
	d="
M146.000305,72.000000 
	C153.142838,72.000000 159.785446,72.000000 166.713272,72.000000 
	C166.713272,85.284805 166.713272,98.354706 166.713272,111.713264 
	C153.715210,111.713264 140.645309,111.713264 127.286743,111.713264 
	C127.286743,98.715233 127.286743,85.645332 127.286743,72.000000 
	C133.306534,72.000000 139.403473,72.000000 146.000305,72.000000 
z"/>
<path fill="#FFFFFF" opacity="1.000000" stroke="none" 
	d="
M182.000000,94.998611 
	C182.000000,87.189598 182.000000,79.880394 182.000000,72.286591 
	C195.285080,72.286591 208.354980,72.286591 221.713409,72.286591 
	C221.713409,85.285080 221.713409,98.354965 221.713409,111.713417 
	C208.714890,111.713417 195.644989,111.713417 182.000000,111.713417 
	C182.000000,106.360245 182.000000,100.929329 182.000000,94.998611 
z"/>
<path fill="#FFFFFF" opacity="1.000000" stroke="none" 
	d="
M237.000000,83.020088 
	C237.000000,79.210052 237.000000,75.897034 237.000000,72.293724 
	C250.270813,72.293724 263.341187,72.293724 276.706787,72.293724 
	C276.706787,85.271843 276.706787,98.342255 276.706787,111.707291 
	C263.727142,111.707291 250.656784,111.707291 237.000000,111.707291 
	C237.000000,102.374222 237.000000,92.945656 237.000000,83.020088 
z"/>
<path fill="#FFFFFF" opacity="1.000000" stroke="none" 
	d="
M182.000000,30.009447 
	C182.000000,25.533213 182.000000,21.555433 182.000000,17.289715 
	C195.278824,17.289715 208.348953,17.289715 221.710541,17.289715 
	C221.710541,30.279335 221.710541,43.349449 221.710541,56.710777 
	C208.720139,56.710777 195.650009,56.710777 182.000000,56.710777 
	C182.000000,48.033287 182.000000,39.270596 182.000000,30.009447 
z"/>
<path fill="#FFFFFF" opacity="1.000000" stroke="none" 
	d="
M127.000145,53.835266 
	C127.000008,41.386391 127.000008,29.424532 127.000008,17.232817 
	C140.396835,17.232817 153.467377,17.232817 166.769501,17.232817 
	C166.769501,30.401594 166.769501,43.472084 166.769501,56.998459 
	C154.223404,56.998459 141.777893,57.047119 129.335175,56.883762 
	C128.545807,56.873398 127.778076,55.214340 127.000145,53.835266 
z"/>
<path fill="#FFFFFF" opacity="1.000000" stroke="none" 
	d="
M79.068604,57.000000 
	C76.592491,57.000000 74.608238,57.000000 72.312485,57.000000 
	C72.312485,43.765846 72.312485,30.694620 72.312485,17.310764 
	C85.236389,17.310764 98.307861,17.310764 111.690659,17.310764 
	C111.690659,30.239347 111.690659,43.310837 111.690659,57.000000 
	C101.076141,57.000000 90.318298,57.000000 79.068604,57.000000 
z"/>
<path fill="#FFFFFF" opacity="1.000000" stroke="none" 
	d="
M57.000000,30.009007 
	C57.000000,39.149494 57.000000,47.791088 57.000000,56.715439 
	C43.710636,56.715439 30.640673,56.715439 17.284393,56.715439 
	C17.284393,43.710293 17.284393,30.640329 17.284393,17.284225 
	C30.290052,17.284225 43.360008,17.284225 57.000000,17.284225 
	C57.000000,21.304909 57.000000,25.407509 57.000000,30.009007 
z"/>
</svg>