<svg version="1.1" id="Layer_1" xmlns="http://www.w3.org/2000/svg" xmlns:xlink="http://www.w3.org/1999/xlink" x="0px" y="0px"
	 width="100%" viewBox="0 0 151 155" enable-background="new 0 0 151 155" xml:space="preserve">
<path fill="#FFFFFF" opacity="1.000000" stroke="none" 
	d="
M152.000000,38.000000 
	C152.000000,77.666664 152.000000,116.833321 152.000000,156.000000 
	C101.666679,156.000000 51.333366,156.000000 1.000036,156.000000 
	C1.000024,104.333359 1.000024,52.666718 1.000012,1.000057 
	C51.333298,1.000038 101.666595,1.000038 151.999939,1.000019 
	C152.000000,13.166667 152.000000,25.333334 152.000000,38.000000 
M89.500000,3.000000 
	C61.072315,3.000000 32.644630,3.000000 4.286294,3.000000 
	C4.286294,53.308971 4.286294,103.044693 4.286294,152.713623 
	C52.642292,152.713623 100.711456,152.713623 148.713699,152.713623 
	C148.713699,102.691017 148.713699,52.955292 148.713699,3.000000 
	C129.118805,3.000000 109.809402,3.000000 89.500000,3.000000 
z"/>
<path fill="#000000" opacity="1.000000" stroke="none" 
	d="
M90.000000,3.000000 
	C109.809402,3.000000 129.118805,3.000000 148.713699,3.000000 
	C148.713699,52.955292 148.713699,102.691017 148.713699,152.713623 
	C100.711456,152.713623 52.642292,152.713623 4.286294,152.713623 
	C4.286294,103.044693 4.286294,53.308971 4.286294,3.000000 
	C32.644630,3.000000 61.072315,3.000000 90.000000,3.000000 
M36.500000,8.000000 
	C27.401859,8.000000 18.303720,8.000000 9.287982,8.000000 
	C9.287982,54.979092 9.287982,101.381500 9.287982,147.711945 
	C54.312397,147.711945 99.048241,147.711945 143.712021,147.711945 
	C143.712021,101.020920 143.712021,54.618511 143.712021,8.000000 
	C108.116318,8.000000 72.808159,8.000000 36.500000,8.000000 
z"/>
<path fill="#FFFFFF" opacity="1.000000" stroke="none" 
	d="
M37.000000,8.000000 
	C72.808159,8.000000 108.116318,8.000000 143.712021,8.000000 
	C143.712021,54.618511 143.712021,101.020920 143.712021,147.711945 
	C99.048241,147.711945 54.312397,147.711945 9.287982,147.711945 
	C9.287982,101.381500 9.287982,54.979092 9.287982,8.000000 
	C18.303720,8.000000 27.401859,8.000000 37.000000,8.000000 
M136.319519,13.000273 
	C95.575706,13.000273 54.831890,13.000273 14.354467,13.000273 
	C14.354467,26.777424 14.354467,39.851986 14.354467,52.643181 
	C56.114159,52.643181 97.518951,52.643181 138.999908,52.643181 
	C138.999908,40.290092 139.044571,28.293251 138.925323,16.298038 
	C138.914352,15.194679 137.857574,14.101717 136.319519,13.000273 
M121.498756,58.000000 
	C85.740227,58.000000 49.981697,58.000000 14.285980,58.000000 
	C14.285980,71.640694 14.285980,84.712090 14.285980,97.716248 
	C55.973568,97.716248 97.374550,97.716248 138.713928,97.716248 
	C138.713928,84.359146 138.713928,71.287750 138.713928,58.000000 
	C133.119766,58.000000 127.808968,58.000000 121.498756,58.000000 
M19.599785,103.000000 
	C17.825689,103.000000 16.051592,103.000000 14.256786,103.000000 
	C14.256786,116.580223 14.256786,129.651627 14.256786,142.742416 
	C55.916943,142.742416 97.319786,142.742416 138.739151,142.742416 
	C138.739151,129.411621 138.739151,116.340134 138.739151,103.000000 
	C99.178177,103.000000 59.877460,103.000000 19.599785,103.000000 
z"/>
<path fill="#000000" opacity="1.000000" stroke="none" 
	d="
M136.802948,13.002100 
	C137.857574,14.101717 138.914352,15.194679 138.925323,16.298038 
	C139.044571,28.293251 138.999908,40.290092 138.999908,52.643181 
	C97.518951,52.643181 56.114159,52.643181 14.354467,52.643181 
	C14.354467,39.851986 14.354467,26.777424 14.354467,13.000273 
	C54.831890,13.000273 95.575706,13.000273 136.802948,13.002100 
M132.286011,47.996109 
	C132.856155,47.398220 133.916199,46.805893 133.923050,46.201618 
	C134.028336,36.919708 133.996445,27.636246 133.996445,18.219009 
	C95.495781,18.219009 57.425491,18.219009 19.222841,18.219009 
	C19.222841,28.177143 19.222841,37.915249 19.222841,47.999725 
	C56.736141,47.999725 94.027679,47.999725 132.286011,47.996109 
z"/>
<path fill="#000000" opacity="1.000000" stroke="none" 
	d="
M121.998459,58.000000 
	C127.808968,58.000000 133.119766,58.000000 138.713928,58.000000 
	C138.713928,71.287750 138.713928,84.359146 138.713928,97.716248 
	C97.374550,97.716248 55.973568,97.716248 14.285980,97.716248 
	C14.285980,84.712090 14.285980,71.640694 14.285980,58.000000 
	C49.981697,58.000000 85.740227,58.000000 121.998459,58.000000 
M81.500000,93.000000 
	C98.928078,93.000000 116.356155,93.000000 133.711655,93.000000 
	C133.711655,82.687325 133.711655,72.948654 133.711655,63.285717 
	C95.355194,63.285717 57.287754,63.285717 19.288313,63.285717 
	C19.288313,73.312599 19.288313,83.051270 19.288313,93.000000 
	C39.883911,93.000000 60.191956,93.000000 81.500000,93.000000 
z"/>
<path fill="#000000" opacity="1.000000" stroke="none" 
	d="
M20.088263,103.000000 
	C59.877460,103.000000 99.178177,103.000000 138.739151,103.000000 
	C138.739151,116.340134 138.739151,129.411621 138.739151,142.742416 
	C97.319786,142.742416 55.916943,142.742416 14.256786,142.742416 
	C14.256786,129.651627 14.256786,116.580223 14.256786,103.000000 
	C16.051592,103.000000 17.825689,103.000000 20.088263,103.000000 
M70.500000,108.000000 
	C53.405182,108.000000 36.310368,108.000000 19.288401,108.000000 
	C19.288401,118.312775 19.288401,128.051453 19.288401,137.714233 
	C57.644917,137.714233 95.712357,137.714233 133.711639,137.714233 
	C133.711639,127.687126 133.711639,117.948509 133.711639,108.000000 
	C112.782677,108.000000 92.141335,108.000000 70.500000,108.000000 
z"/>
<path fill="#FFFFFF" opacity="1.000000" stroke="none" 
	d="
M131.802612,47.997917 
	C94.027679,47.999725 56.736141,47.999725 19.222841,47.999725 
	C19.222841,37.915249 19.222841,28.177143 19.222841,18.219009 
	C57.425491,18.219009 95.495781,18.219009 133.996445,18.219009 
	C133.996445,27.636246 134.028336,36.919708 133.923050,46.201618 
	C133.916199,46.805893 132.856155,47.398220 131.802612,47.997917 
z"/>
<path fill="#FFFFFF" opacity="1.000000" stroke="none" 
	d="
M81.000000,93.000000 
	C60.191956,93.000000 39.883911,93.000000 19.288313,93.000000 
	C19.288313,83.051270 19.288313,73.312599 19.288313,63.285717 
	C57.287754,63.285717 95.355194,63.285717 133.711655,63.285717 
	C133.711655,72.948654 133.711655,82.687325 133.711655,93.000000 
	C116.356155,93.000000 98.928078,93.000000 81.000000,93.000000 
z"/>
<path fill="#FFFFFF" opacity="1.000000" stroke="none" 
	d="
M71.000000,108.000000 
	C92.141335,108.000000 112.782677,108.000000 133.711639,108.000000 
	C133.711639,117.948509 133.711639,127.687126 133.711639,137.714233 
	C95.712357,137.714233 57.644917,137.714233 19.288401,137.714233 
	C19.288401,128.051453 19.288401,118.312775 19.288401,108.000000 
	C36.310368,108.000000 53.405182,108.000000 71.000000,108.000000 
z"/>
</svg>